<svg version="1.0" xmlns="http://www.w3.org/2000/svg"
 width="300.000000pt" height="300.000000pt" viewBox="0 0 300.000000 300.000000"
 preserveAspectRatio="xMidYMid meet">
<metadata>
Created by potrace 1.15, written by Peter Selinger 2001-2017
</metadata>
<g transform="translate(0.000000,300.000000) scale(0.100000,-0.100000)"
fill="#000000" stroke="none">
<path d="M1764 2600 c8 -119 -41 -589 -64 -613 -4 -5 -34 -4 -66 2 -82 16
-261 13 -309 -4 -21 -8 -40 -13 -40 -12 -12 36 -42 166 -65 281 -17 82 -32
152 -35 154 -18 18 22 -268 56 -402 19 -74 19 -81 4 -127 -15 -44 -21 -50 -72
-73 -125 -58 -218 -168 -235 -282 -14 -92 0 -147 44 -170 39 -20 73 -14 168
34 89 45 119 83 101 133 -10 29 -8 34 25 64 20 19 64 44 98 57 52 19 79 23
182 23 114 0 123 -2 179 -30 69 -35 111 -90 82 -107 -24 -13 -21 -51 6 -80 29
-31 136 -83 202 -98 43 -10 52 -9 74 8 15 10 27 29 29 41 5 31 43 23 76 -16
22 -26 23 -32 10 -37 -10 -4 -14 -15 -12 -33 2 -24 7 -28 31 -26 20 1 27 -3
27 -16 0 -14 -6 -17 -23 -14 -27 5 -52 -19 -43 -43 5 -12 16 -15 41 -12 38 4
49 -8 39 -46 -4 -19 -12 -23 -42 -22 -33 1 -37 -2 -37 -24 0 -20 6 -26 28 -28
24 -3 27 -7 21 -25 -10 -33 -21 -42 -38 -28 -18 15 -52 6 -60 -16 -7 -18 10
-43 30 -43 20 0 17 -24 -4 -44 -18 -15 -19 -15 -30 9 -13 29 -34 32 -53 9 -10
-12 -10 -20 -1 -35 16 -25 17 -25 -23 -26 -32 -1 -35 2 -35 26 0 37 -34 134
-65 187 -31 53 -90 102 -173 143 l-64 32 7 61 c8 67 1 78 -47 78 -28 0 -32 -6
-43 -76 l-6 -40 -67 8 c-37 5 -81 6 -99 3 -31 -6 -32 -5 -39 40 -3 26 -13 49
-20 52 -17 6 -69 -12 -68 -23 1 -5 4 -28 8 -51 l6 -41 -49 -17 c-130 -43 -220
-143 -265 -294 -18 -62 -21 -166 -6 -207 35 -91 150 -118 485 -114 320 4 353
5 348 13 -2 4 6 7 20 7 66 0 147 72 147 131 0 22 11 31 76 64 66 32 78 43 95
80 10 23 25 48 34 55 8 6 17 28 20 49 4 20 13 48 21 63 15 28 19 104 6 112 -5
3 -7 19 -4 37 7 51 -40 138 -98 179 -34 24 -49 42 -50 58 0 29 -21 115 -29
122 -3 3 -15 23 -26 44 -36 70 -154 148 -269 177 -42 10 -46 14 -62 61 -17 53
-17 54 12 233 23 138 27 488 6 520 -11 17 -13 9 -8 -55z m-90 -651 c20 -9 35
-29 48 -63 22 -58 13 -76 -39 -76 -29 0 -36 5 -44 30 -18 49 -39 38 -36 -17 2
-42 -1 -48 -19 -51 -31 -4 -72 34 -80 73 -11 60 -33 43 -36 -27 -2 -51 -6 -63
-21 -66 -34 -7 -57 26 -57 80 0 64 -15 59 -45 -17 -33 -81 -64 -104 -85 -64
-13 23 1 98 29 159 13 28 25 37 61 47 61 17 285 11 324 -8z m174 -148 c167
-61 250 -163 260 -318 3 -40 1 -73 -3 -73 -4 0 -20 9 -36 21 -39 28 -173 89
-196 89 -31 1 27 39 70 46 21 4 36 12 34 18 -5 15 -66 8 -95 -11 -13 -8 -25
-13 -26 -11 -1 2 -10 16 -20 31 -46 74 -178 115 -331 104 -106 -8 -193 -39
-249 -88 -39 -35 -47 -38 -71 -29 -33 12 -75 13 -75 1 0 -11 25 -21 51 -21 21
0 69 -42 69 -60 0 -5 -20 -10 -45 -10 -54 0 -145 -33 -185 -67 -26 -22 -31
-23 -36 -8 -14 35 3 144 29 188 42 71 144 162 204 181 17 5 21 1 26 -23 13
-63 66 -80 111 -35 14 15 26 30 26 35 0 4 13 -6 30 -22 34 -34 61 -33 96 5 18
20 23 21 39 10 27 -20 79 -17 99 5 13 15 26 18 56 14 32 -5 42 -1 62 20 29 31
40 32 106 8z m79 -323 c97 -36 167 -88 147 -108 -20 -20 -182 43 -232 90 -45
43 -5 52 85 18z m-250 -223 c66 -20 151 -67 204 -114 77 -68 129 -193 129
-311 0 -71 -27 -102 -108 -127 -49 -15 -102 -18 -387 -18 l-330 0 -50 25 c-34
17 -56 37 -70 62 -18 33 -18 43 -8 117 20 131 91 254 181 308 46 28 142 67
192 77 42 8 195 -4 247 -19z"/>
<path d="M1480 1216 c-69 -18 -114 -50 -142 -103 -26 -48 -43 -133 -27 -133 5
0 8 -3 7 -7 -6 -20 40 -92 67 -106 37 -20 137 -49 143 -42 5 5 -1 7 -71 25
-57 15 -113 71 -123 125 -24 127 63 227 199 228 34 0 79 -5 99 -12 42 -14 114
-87 124 -126 23 -94 -62 -208 -166 -222 -22 -3 -43 -9 -46 -14 -2 -4 5 -6 17
-4 14 3 19 0 16 -9 -7 -17 110 38 141 67 53 49 75 131 52 191 -5 14 -28 46
-51 70 -61 67 -153 94 -239 72z"/>
<path d="M578 1770 c-8 -13 -19 -18 -33 -14 -14 3 -30 -4 -48 -20 -16 -14 -32
-26 -38 -26 -17 0 -9 -57 11 -75 19 -17 29 -18 126 -8 124 13 154 28 154 77 0
37 -17 56 -52 58 -13 1 -32 8 -43 15 -28 19 -63 16 -77 -7z m76 -41 c6 -30 26
-32 26 -3 0 10 8 14 23 12 16 -2 22 -10 22 -28 0 -38 -43 -54 -155 -54 -91 -1
-95 0 -98 22 -4 24 7 29 26 10 7 -7 13 -9 13 -5 1 4 3 12 4 17 1 6 3 15 4 20
0 6 10 10 21 10 11 0 20 -4 20 -10 0 -20 20 -9 26 14 11 45 58 41 68 -5z"/>
<path d="M2456 1556 c-11 -12 -29 -25 -38 -29 -21 -7 -24 -57 -6 -75 18 -18
142 -16 157 2 7 8 11 32 9 52 -3 36 -6 39 -52 55 -48 18 -48 18 -70 -5z"/>
<path d="M826 1080 c-26 -27 -49 -50 -51 -50 -2 0 -20 14 -40 31 -39 34 -71
33 -62 -1 7 -26 -26 -45 -70 -41 -37 3 -43 -12 -19 -44 22 -31 -4 -70 -69
-102 -30 -15 -55 -31 -55 -35 0 -13 18 -9 61 13 23 11 38 16 35 11 -3 -5 -19
-15 -36 -22 -16 -7 -30 -16 -30 -21 0 -12 7 -11 31 1 35 20 22 -21 -23 -67
-47 -48 -45 -73 2 -28 l30 29 0 -27 c0 -41 17 -32 25 13 6 35 17 49 72 93 59
47 63 52 44 61 -14 6 -30 5 -46 -2 -14 -6 -25 -9 -25 -6 0 3 20 14 44 24 24
11 49 27 56 35 7 8 19 15 27 15 8 0 13 5 11 11 -2 6 -8 9 -13 8 -38 -9 -45
-13 -45 -23 0 -6 -13 -17 -30 -23 l-30 -11 15 28 c20 39 53 60 92 60 30 0 33
-2 27 -24 -5 -22 -2 -25 30 -32 41 -7 86 -54 139 -141 29 -49 67 -76 67 -48 0
15 -93 159 -109 169 -22 14 -10 26 24 26 19 0 35 5 35 11 0 8 -15 10 -45 7
-27 -4 -51 -1 -61 7 -15 11 -12 15 27 38 24 14 61 33 82 42 20 8 37 20 37 25
0 6 -2 10 -5 10 -16 0 -97 -38 -135 -64 l-44 -30 21 30 c12 16 33 40 47 53 14
14 26 28 26 33 0 18 -20 5 -64 -42z"/>
</g>
</svg>