<svg id="Layer_1" height="512" viewBox="0 0 512 512" width="512" xmlns="http://www.w3.org/2000/svg" data-name="Layer 1"><path d="m165.4 265.65-135.5 135.5a40.879 40.879 0 0 0 0 57.82l23.13 23.13a40.679 40.679 0 0 0 17.3 10.3l-20.43-20.43a40.879 40.879 0 0 1 0-57.82l135.5-135.5 56.3-30.8-15.48-15.48z" fill="#d4e1f4"/><g fill="#0635c9"><path d="m308.63 245.876-8.485 8.485 185.375 185.376a32.372 32.372 0 1 1 -45.781 45.781l-172.884-172.882-8.484 8.485 172.882 172.879a44.372 44.372 0 1 0 62.752-62.752z"/><path d="m227.539 164.785a115.681 115.681 0 0 0 -143.639-153.826 6 6 0 0 0 -2.342 9.934l42.188 42.188-10.044 50.085-52.051 9.2-40.672-40.955a6.014 6.014 0 0 0 -9.961 2.318 115.677 115.677 0 0 0 153.769 143.808l26.092 26.092 8.486-8.485-28.981-28.98a6 6 0 0 0 -6.733-1.216 104.1 104.1 0 0 1 -116.3-21.033 103.026 103.026 0 0 1 -27.68-96.792l35.68 35.925a6 6 0 0 0 5.3 1.68l59.174-10.457a6 6 0 0 0 4.839-4.729l11.482-57.252a6 6 0 0 0 -1.64-5.422l-37.231-37.232a103.684 103.684 0 0 1 117.675 144.014 6 6 0 0 0 1.216 6.733l41.473 41.472 8.485-8.485z"/><path d="m291.115 299.428 131.757 131.757a6 6 0 0 0 8.485-8.485l-131.757-131.758a6 6 0 0 0 -8.485 8.486z"/><path d="m204.933 196.275a6 6 0 1 0 -8.486 8.485l16.54 16.54a6 6 0 0 0 8.485-8.485z"/><path d="m196.848 139.66c.158.012.314.018.469.018a6 6 0 0 0 5.976-5.538 92.849 92.849 0 0 0 -4.412-36.314 6 6 0 1 0 -11.393 3.769 80.849 80.849 0 0 1 3.84 31.621 6 6 0 0 0 5.52 6.444z"/><path d="m188.719 76.651a92.728 92.728 0 0 0 -5.68-7.826 6 6 0 1 0 -9.33 7.547 80.821 80.821 0 0 1 4.943 6.809 6 6 0 1 0 10.067-6.53z"/></g><path d="m185.342 344.011-95.859 95.859a6 6 0 0 0 8.485 8.485l95.859-95.855a6 6 0 0 0 -8.485-8.486z" fill="#1ae5be"/><path d="m167.989 318.173a6 6 0 0 0 -8.485 0l-95.859 95.859a6 6 0 0 0 8.485 8.485l95.859-95.858a6 6 0 0 0 0-8.486z" fill="#1ae5be"/><path d="m479.528 13.681a6 6 0 0 0 -7.272-.937l-56.556 33.07a6.006 6.006 0 0 0 -2.626 3.173l-9.882 27.849-109.992 109.988-5.265-5.265a6 6 0 0 0 -8.486 0l-24.288 24.288-3.866-3.866a22.6 22.6 0 0 0 -34.619 28.77l-54.156 29.637a5.985 5.985 0 0 0 -1.362 1.021l-135.5 135.5a46.937 46.937 0 0 0 0 66.3l23.127 23.128a46.938 46.938 0 0 0 66.3 0l135.5-135.5a5.985 5.985 0 0 0 1.021-1.362l29.637-54.157a22.6 22.6 0 0 0 28.77-34.618l-3.866-3.866 24.288-24.288a6 6 0 0 0 0-8.486l-5.265-5.265 109.994-109.984 27.849-9.882a6 6 0 0 0 3.173-2.627l33.07-56.559a6 6 0 0 0 -.937-7.271zm-238.028 329.282-134.9 134.896a34.925 34.925 0 0 1 -49.334 0l-23.125-23.128a34.925 34.925 0 0 1 0-49.334l134.895-134.897 56.12-30.712 47.054 47.054zm60.035-58.77a10.62 10.62 0 0 1 -15 0l-58.723-58.722a10.609 10.609 0 0 1 15-15l58.722 58.722a10.621 10.621 0 0 1 -.001 15zm-3.866-35.84-34.02-34.021 20.046-20.045 34.02 34.02zm159.266-160-27.06 9.6a6 6 0 0 0 -2.236 1.412l-110.949 110.948-15-15 110.943-110.95a6 6 0 0 0 1.412-2.237l9.6-27.06 50.671-29.626 12.244 12.244z" fill="#1ae5be"/></svg>